<svg version="1.1" xmlns="http://www.w3.org/2000/svg" x="0" y="0" viewBox="0 0 500 500" xml:space="preserve">
  <circle cx="250" cy="250" r="240" fill="#4353ff"/>
  <path d="M316.03 256.29c-17.97 0-41.11 11.61-56.92 30.57-1.36-.85-2.75-1.74-4.16-2.66-1.34-.88-2.67-1.73-3.99-2.55 4.28-8.29 7.12-17.45 7.89-27.26l68.47-39.53a9.05 9.05 0 004.53-7.85v-84.04c0-.03 0-.05-.01-.08 0-.37-.03-.74-.07-1.11 0-.02-.01-.04-.01-.07-.05-.33-.12-.66-.2-.99-.02-.09-.05-.18-.07-.27-.08-.26-.17-.53-.27-.79-.03-.09-.07-.18-.1-.26-.14-.33-.3-.65-.48-.97v-.01a7.7 7.7 0 00-.6-.89c-.06-.08-.12-.15-.18-.22-.17-.22-.35-.43-.54-.62-.07-.07-.13-.14-.2-.2-.24-.23-.49-.45-.75-.66a.435.435 0 00-.07-.06c-.29-.22-.6-.43-.91-.61a.304.304 0 01-.07-.05L254.53 73.1a9.071 9.071 0 00-9.07 0l-72.78 42.01c-.03.01-.05.03-.07.05-.31.18-.62.39-.91.61-.03.02-.06.05-.08.07-.25.2-.49.41-.73.64l-.21.21c-.19.19-.36.4-.53.61-.06.08-.13.15-.19.23-.21.28-.41.57-.59.88-.01.01-.01.02-.02.03-.18.31-.33.63-.47.95-.04.09-.07.18-.1.27-.1.26-.19.52-.27.78-.03.09-.05.18-.08.27-.08.33-.15.66-.2.99 0 .02-.01.05-.01.07-.05.37-.07.74-.07 1.11 0 .03-.01.05-.01.08V207a9.07 9.07 0 004.53 7.85l67.96 39.25c-.67 6.58-2.57 12.75-5.39 18.4-25.42-13.59-43.17-16.8-54.27-16.8-34.72 0-47.09 18.5-47.09 35.8 0 17.82 15.48 35.8 50.06 35.8 17.97 0 41.11-11.61 56.93-30.57 1.36.85 2.75 1.74 4.16 2.66 1.34.88 2.67 1.73 3.99 2.55-5.05 9.78-8.11 20.78-8.11 32.62v84.48c0 5.01 4.06 9.07 9.07 9.07s9.07-4.06 9.07-9.07v-84.48c0-8.5 2.14-16.39 5.66-23.48 25.42 13.59 43.17 16.8 54.27 16.8 34.72 0 47.09-18.5 47.09-35.8.02-17.81-15.46-35.79-50.04-35.79zm-132.06 52.88c-19.1 0-31.93-7.1-31.93-17.67 0-5.31 2.82-17.67 28.96-17.67 7.27 0 21.54 2.05 43.84 13.67-12.44 13.56-29.43 21.67-40.87 21.67zm75.1-212.52l45.58 26.31-45.58 26.32V96.65zm-18.14 52.63l-45.58-26.32 45.58-26.31v52.63zm18.14 84.04v-63.1l54.65-31.56v63.1l-54.65 31.56zm-72.78-94.66l54.64 31.55v63.1l-54.64-31.55v-63.1zM319 309.76c-7.27 0-21.54-2.05-43.84-13.67 12.45-13.56 29.43-21.67 40.87-21.67 19.1 0 31.93 7.1 31.93 17.67 0 5.32-2.82 17.67-28.96 17.67z" fill="#fff"/>
</svg>
