<svg width="24" height="25" viewBox="0 0 24 25" fill="none" xmlns="http://www.w3.org/2000/svg">
<path fill-rule="evenodd" clip-rule="evenodd" d="M8.81292 5.30055C9.01982 5.31182 9.19832 5.44954 9.26173 5.6468L12.6312 16.1297L14.7362 9.25345C14.7976 9.05279 14.9778 8.91184 15.1873 8.90054C15.3969 8.88923 15.5912 9.00997 15.6739 9.20285L17.8358 14.2474L18.6307 12.7637C18.7177 12.6012 18.8871 12.4998 19.0714 12.4998H21V13.4998L19.3708 13.4998L18.2265 15.6359C18.1357 15.8053 17.956 15.9077 17.764 15.8993C17.572 15.891 17.4018 15.7734 17.3261 15.5968L15.2927 10.852L13.121 17.9462C13.057 18.1551 12.8648 18.2983 12.6463 18.2998C12.4279 18.3013 12.2337 18.1608 12.1668 17.9528L8.70958 7.19689L6.028 13.2036C5.94757 13.3838 5.76872 13.4998 5.57143 13.4998H3V12.4998H5.24708L8.32915 5.59598C8.41361 5.40678 8.60603 5.28928 8.81292 5.30055Z" fill="white" fill-opacity="0.67"/>
</svg>
