<svg width="24" height="25" viewBox="0 0 24 25" fill="none" xmlns="http://www.w3.org/2000/svg">
<path d="M9 10.5C9.55228 10.5 10 10.0523 10 9.5C10 8.94772 9.55228 8.5 9 8.5C8.44772 8.5 8 8.94772 8 9.5C8 10.0523 8.44772 10.5 9 10.5Z" fill="white" fill-opacity="0.67"/>
<path fill-rule="evenodd" clip-rule="evenodd" d="M5 7C5 6.17157 5.67157 5.5 6.5 5.5L18.5 5.5C19.3284 5.5 20 6.17157 20 7V19C20 19.8284 19.3284 20.5 18.5 20.5H6.5C5.67157 20.5 5 19.8284 5 19L5 7ZM6.5 6.5C6.22386 6.5 6 6.72386 6 7L6 18.7929L12.5 12.2929L19 18.7929V7C19 6.72386 18.7761 6.5 18.5 6.5L6.5 6.5ZM12.5 13.7071L18.2929 19.5H6.70711L12.5 13.7071Z" fill="white" fill-opacity="0.67"/>
<g opacity="0.4">
<path d="M9.79282 1.80852C10.1833 1.41799 10.8165 1.41799 11.207 1.80852L13.8987 4.50019L7.10115 4.50019L9.79282 1.80852Z" fill="white" fill-opacity="0.67"/>
<path d="M3.99969 7.60165L3.99969 14.4002L1.30754 11.708C0.917017 11.3175 0.917017 10.6843 1.30754 10.2938L3.99969 7.60165Z" fill="white" fill-opacity="0.67"/>
<path d="M12.4998 19.5002L7.99976 19.5002L11.6462 15.8537C11.9612 15.5388 12.4998 15.7618 12.4998 16.2073L12.4998 19.5002Z" fill="white" fill-opacity="0.67"/>
</g>
</svg>
