<svg width="24" height="25" viewBox="0 0 24 25" fill="none" xmlns="http://www.w3.org/2000/svg">
<path opacity="0.4" fill-rule="evenodd" clip-rule="evenodd" d="M4.57128 13.5459C3.67273 13.7421 3 14.5424 3 15.4998L3 19.4998C3 20.6044 3.89543 21.4998 5 21.4998L12.5252 21.4998L4.57128 13.5459Z" fill="white" fill-opacity="0.67"/>
<path fill-rule="evenodd" clip-rule="evenodd" d="M18 4.5H14C13.4477 4.5 13 4.94772 13 5.5L13 17.5C13 19.1569 14.3431 20.5 16 20.5C17.6569 20.5 19 19.1569 19 17.5V5.5C19 4.94772 18.5523 4.5 18 4.5ZM14 3.5C12.8954 3.5 12 4.39543 12 5.5V7.84315L10.7573 6.60044C9.97624 5.81939 8.70991 5.81939 7.92886 6.60043L5.10043 9.42886C4.31939 10.2099 4.31939 11.4762 5.10043 12.2573L12.9999 20.1568V20.1457C13.7329 20.9762 14.8053 21.5 16 21.5C18.2091 21.5 20 19.7091 20 17.5V5.5C20 4.39543 19.1046 3.5 18 3.5L14 3.5ZM10.0502 7.30754L12 9.25736L12 17.5C12 17.5841 12.0026 17.6676 12.0077 17.7503L5.80754 11.5502C5.41702 11.1597 5.41702 10.5265 5.80754 10.136L8.63597 7.30754C9.02649 6.91702 9.65966 6.91702 10.0502 7.30754ZM16 18.5C16.5523 18.5 17 18.0523 17 17.5C17 16.9477 16.5523 16.5 16 16.5C15.4477 16.5 15 16.9477 15 17.5C15 18.0523 15.4477 18.5 16 18.5Z" fill="white" fill-opacity="0.67"/>
</svg>
