<svg width="24" height="25" viewBox="0 0 24 25" fill="none" xmlns="http://www.w3.org/2000/svg">
<path opacity="0.4" d="M6 8.29289V7C6 6.72386 6.22386 6.5 6.5 6.5H7.79289C8.23835 6.5 8.46143 7.03857 8.14645 7.35355L6.85355 8.64645C6.53857 8.96143 6 8.73835 6 8.29289Z" fill="white" fill-opacity="0.67"/>
<path fill-rule="evenodd" clip-rule="evenodd" d="M11 6C11 5.17157 10.3284 4.5 9.5 4.5L5.5 4.5C4.67157 4.5 4 5.17157 4 6L4 10C4 10.8284 4.67157 11.5 5.5 11.5H9.5C10.3284 11.5 11 10.8284 11 10V6ZM9.5 5.5C9.77614 5.5 10 5.72386 10 6V10C10 10.2761 9.77614 10.5 9.5 10.5H5.5C5.22386 10.5 5 10.2761 5 10L5 6C5 5.72386 5.22386 5.5 5.5 5.5L9.5 5.5Z" fill="white" fill-opacity="0.67"/>
<path fill-rule="evenodd" clip-rule="evenodd" d="M19 6C19 5.17157 18.3284 4.5 17.5 4.5H13.5C12.6716 4.5 12 5.17157 12 6V10C12 10.8284 12.6716 11.5 13.5 11.5H17.5C18.3284 11.5 19 10.8284 19 10V6ZM17.5 5.5C17.7761 5.5 18 5.72386 18 6V10C18 10.2761 17.7761 10.5 17.5 10.5H13.5C13.2239 10.5 13 10.2761 13 10V6C13 5.72386 13.2239 5.5 13.5 5.5H17.5Z" fill="white" fill-opacity="0.67"/>
<path fill-rule="evenodd" clip-rule="evenodd" d="M5.5 12.5C4.67157 12.5 4 13.1716 4 14V18C4 18.8284 4.67157 19.5 5.5 19.5H9.5C10.3284 19.5 11 18.8284 11 18V14C11 13.1716 10.3284 12.5 9.5 12.5H5.5ZM5 14C5 13.7239 5.22386 13.5 5.5 13.5H9.5C9.77614 13.5 10 13.7239 10 14V18C10 18.2761 9.77614 18.5 9.5 18.5H5.5C5.22386 18.5 5 18.2761 5 18V14Z" fill="white" fill-opacity="0.67"/>
<path d="M15 15.5H12V16.5H15V19.5H16V16.5H19V15.5H16V12.5H15V15.5Z" fill="white" fill-opacity="0.67"/>
</svg>
