<svg width="24" height="25" viewBox="0 0 24 25" fill="none" xmlns="http://www.w3.org/2000/svg">
<path d="M2 7.5L21 7.5V6.5L2 6.5V7.5Z" fill="white" fill-opacity="0.67"/>
<path d="M21 12.5L14 12.5L14 11.5L21 11.5V12.5Z" fill="white" fill-opacity="0.67"/>
<path d="M21 17.5L14 17.5V16.5L21 16.5V17.5Z" fill="white" fill-opacity="0.67"/>
<path fill-rule="evenodd" clip-rule="evenodd" d="M3.70718 14L5.35363 12.3536L4.64652 11.6465L2.29297 14L4.64652 16.3536L5.35363 15.6465L3.70718 14Z" fill="white" fill-opacity="0.67"/>
<path fill-rule="evenodd" clip-rule="evenodd" d="M11.2928 14L9.64637 15.6464L10.3535 16.3535L12.707 14L10.3535 11.6464L9.64637 12.3535L11.2928 14Z" fill="white" fill-opacity="0.67"/>
<path fill-rule="evenodd" clip-rule="evenodd" d="M5.80664 17.5L8.13997 10.5H9.19407L6.86073 17.5H5.80664Z" fill="white" fill-opacity="0.67"/>
</svg>
