<svg width="24" height="25" viewBox="0 0 24 25" fill="none" xmlns="http://www.w3.org/2000/svg">
<path fill-rule="evenodd" clip-rule="evenodd" d="M13.2354 3.3401C12.7788 3.08325 12.2212 3.08325 11.7646 3.3401L4.76461 7.2776C4.29229 7.54328 4 8.04305 4 8.58496L4 16.4153C4 16.9572 4.29229 17.457 4.76461 17.7226L11.7646 21.6601C12.2212 21.917 12.7788 21.917 13.2354 21.6601L20.2354 17.7226C20.7077 17.457 21 16.9572 21 16.4153L21 8.58496C21 8.04305 20.7077 7.54327 20.2354 7.2776L13.2354 3.3401ZM12.2549 4.21167C12.4071 4.12606 12.5929 4.12606 12.7451 4.21167L19.4801 8.00011L12.5 11.9264L5.51987 8.00011L12.2549 4.21167ZM5 8.85504L5 16.4153C5 16.5959 5.09743 16.7625 5.25487 16.8511L12 20.6452L12 12.7925L5 8.85504ZM13 20.6452L19.7451 16.8511C19.9026 16.7625 20 16.5959 20 16.4153L20 8.85504L13 12.7925L13 20.6452Z" fill="white" fill-opacity="0.67"/>
<g opacity="0.4">
<path d="M12.5 10.1169C12.5 10.5056 12.076 10.7456 11.7428 10.5457L8.21458 8.42875C7.89091 8.23454 7.89091 7.76545 8.21458 7.57125L11.7428 5.45435C12.076 5.25439 12.5 5.49445 12.5 5.8831V10.1169Z" fill="white" fill-opacity="0.67"/>
<path d="M10.2854 13.9287C10.6091 13.7345 10.6091 13.2655 10.2854 13.0713L6.75725 10.9543C6.42399 10.7544 6 10.9944 6 11.3831L6 15.6169C6 16.0056 6.42399 16.2456 6.75725 16.0457L10.2854 13.9287Z" fill="white" fill-opacity="0.67"/>
</g>
</svg>
