<svg width="24" height="25" viewBox="0 0 24 25" fill="none" xmlns="http://www.w3.org/2000/svg">
<g opacity="0.4">
<path d="M6.56699 7.61602C6.82276 7.17301 7.5 7.35447 7.5 7.86602L7.5 9.99998C7.5 10.2761 7.27 10.5081 7.00905 10.4178C6.42173 10.2145 6 9.65647 6 8.99998C6 8.72823 6.07484 8.45846 6.21413 8.22719L6.56699 7.61602Z" fill="white" fill-opacity="0.67"/>
<path d="M11.067 17.616C11.3228 17.173 12 17.3545 12 17.866L12 20C12 20.2761 11.77 20.5081 11.5091 20.4178C10.9217 20.2144 10.5 19.6565 10.5 19C10.5 18.7281 10.5749 18.4582 10.7144 18.2268L11.067 17.616Z" fill="white" fill-opacity="0.67"/>
<path d="M16.0091 10.4178C16.27 10.5081 16.5 10.2761 16.5 9.99997V7.86603C16.5 7.35447 15.8228 7.17301 15.567 7.61602L15.2144 8.22681C15.0749 8.45818 15 8.72808 15 8.99997C15 9.65646 15.4217 10.2144 16.0091 10.4178Z" fill="white" fill-opacity="0.67"/>
<path d="M6.64244 8.48515L6.64252 8.48519L6.64714 8.47719L7 7.86602L7 9.86635C6.70072 9.69322 6.5 9.36958 6.5 8.99998C6.5 8.81868 6.55029 8.63816 6.64244 8.48515ZM11.1426 18.4849L11.1427 18.4849L11.1474 18.4768L11.5 17.866L11.5 19.8663C11.2007 19.6932 11 19.3696 11 19C11 18.8186 11.0503 18.638 11.1426 18.4849ZM15.6426 8.4849L15.6427 8.48494L15.6474 8.47681L16 7.86603V9.86634C15.7007 9.69321 15.5 9.36957 15.5 8.99997C15.5 8.81857 15.5503 8.63797 15.6426 8.4849Z" stroke="white" stroke-opacity="0.67"/>
</g>
<path fill-rule="evenodd" clip-rule="evenodd" d="M4 8.99996C4 10.933 5.567 12.5 7.5 12.5C9.433 12.5 11 10.933 11 8.99996C11 8.36763 10.8267 7.74042 10.5025 7.20053L8.36604 3.5C7.98114 2.83334 7.01889 2.83333 6.63398 3.5L4.49795 7.19972C4.17349 7.73984 4 8.36732 4 8.99996ZM7.5 11.5C6.11929 11.5 5 10.3807 5 8.99996C5 8.54667 5.12524 8.09618 5.35694 7.71172L5.36179 7.70368L7.50001 4L9.64335 7.71238C9.8748 8.09667 10 8.54691 10 8.99996C10 10.3807 8.88071 11.5 7.5 11.5Z" fill="white" fill-opacity="0.67"/>
<path fill-rule="evenodd" clip-rule="evenodd" d="M13 8.99996C13 10.933 14.567 12.5 16.5 12.5C18.433 12.5 20 10.933 20 8.99996C20 8.36763 19.8267 7.74042 19.5025 7.20053L17.366 3.5C16.9811 2.83334 16.0189 2.83333 15.634 3.5L13.4979 7.19972C13.1735 7.73984 13 8.36732 13 8.99996ZM16.5 11.5C15.1193 11.5 14 10.3807 14 8.99996C14 8.54667 14.1252 8.09618 14.3569 7.71172L14.3618 7.70368L16.5 4L18.6434 7.71238C18.8748 8.09667 19 8.54691 19 8.99996C19 10.3807 17.8807 11.5 16.5 11.5Z" fill="white" fill-opacity="0.67"/>
<path fill-rule="evenodd" clip-rule="evenodd" d="M12 22.5C10.067 22.5 8.5 20.933 8.5 19C8.5 18.3673 8.67349 17.7398 8.99795 17.1997L11.134 13.5C11.5189 12.8333 12.4811 12.8333 12.866 13.5L15.0025 17.2005C15.3267 17.7404 15.5 18.3676 15.5 19C15.5 20.933 13.933 22.5 12 22.5ZM9.5 19C9.5 20.3807 10.6193 21.5 12 21.5C13.3807 21.5 14.5 20.3807 14.5 19C14.5 18.5469 14.3749 18.0966 14.1434 17.7123L14.1387 17.7044L12 14L9.86172 17.7036L9.85694 17.7117C9.62524 18.0962 9.5 18.5467 9.5 19Z" fill="white" fill-opacity="0.67"/>
</svg>
