<svg width="24" height="25" viewBox="0 0 24 25" fill="none" xmlns="http://www.w3.org/2000/svg">
<path d="M12 9.5L12 3.5H13L13 9.5H17.5C18.3284 9.5 19 10.1716 19 11V14.5H18V11C18 10.7239 17.7761 10.5 17.5 10.5L7.5 10.5C7.22386 10.5 7 10.7239 7 11V14.5H6V11C6 10.1716 6.67157 9.5 7.5 9.5H12Z" fill="white" fill-opacity="0.67"/>
<path d="M16.3536 20.8536L18.5 18.7071L20.6464 20.8536L21.3536 20.1464L19.2071 18L21.3536 15.8536L20.6464 15.1464L18.5 17.2929L16.3536 15.1464L15.6464 15.8536L17.7929 18L15.6464 20.1464L16.3536 20.8536Z" fill="white" fill-opacity="0.67"/>
<path fill-rule="evenodd" clip-rule="evenodd" d="M6.5 20.5C7.88071 20.5 9 19.3807 9 18C9 16.6193 7.88071 15.5 6.5 15.5C5.11929 15.5 4 16.6193 4 18C4 19.3807 5.11929 20.5 6.5 20.5ZM8 18C8 18.8284 7.32843 19.5 6.5 19.5C5.67157 19.5 5 18.8284 5 18C5 17.1716 5.67157 16.5 6.5 16.5C7.32843 16.5 8 17.1716 8 18Z" fill="white" fill-opacity="0.67"/>
</svg>
