<svg width="24" height="25" viewBox="0 0 24 25" fill="none" xmlns="http://www.w3.org/2000/svg">
<path opacity="0.4" fill-rule="evenodd" clip-rule="evenodd" d="M12.5251 8.5L5.5 8.5C5.22386 8.5 5 8.72386 5 9L5 13C5 13.2761 5.22386 13.5 5.5 13.5H6.90675C7.30567 12.2651 8.42349 11.3534 9.7669 11.2582L12.5251 8.5ZM12.9145 13.0603C12.9844 13.2014 13.0442 13.3483 13.0933 13.5L18.5 13.5C18.7761 13.5 19 13.2761 19 13V9C19 8.72386 18.7761 8.5 18.5 8.5H17.4749L12.9145 13.0603Z" fill="white" fill-opacity="0.67"/>
<path fill-rule="evenodd" clip-rule="evenodd" d="M6 16.5C7.10457 16.5 8 15.6046 8 14.5C8 13.3954 8.89543 12.5 10 12.5C11.1046 12.5 12 13.3954 12 14.5C12 15.6046 11.1046 16.5 10 16.5H6Z" fill="white" fill-opacity="0.67"/>
<path fill-rule="evenodd" clip-rule="evenodd" d="M14.5251 6.5L5 6.5C3.89543 6.5 3 7.39543 3 8.5L3 18.5C3 19.6046 3.89543 20.5 5 20.5H19C20.1046 20.5 21 19.6046 21 18.5L21 8.5C21 7.54262 20.3273 6.74235 19.4288 6.54608L18.4749 7.5H19C19.5523 7.5 20 7.94772 20 8.5L20 18.5C20 19.0523 19.5523 19.5 19 19.5H5C4.44772 19.5 4 19.0523 4 18.5L4 8.5C4 7.94772 4.44772 7.5 5 7.5L13.5251 7.5L14.5251 6.5Z" fill="white" fill-opacity="0.67"/>
<path d="M12 11.5L20 3.5" stroke="white" stroke-opacity="0.67" stroke-width="1.25"/>
</svg>
